<svg viewBox="0 0 48 48" xmlns="http://www.w3.org/2000/svg" xmlns:xlink="http://www.w3.org/1999/xlink" width="48" height="48"><defs><path fill="#5d6b82" id="a" d="M25 37.336C31.073 29.359 41 16.012 41 14c0-.816-.004-1.367-6.419-1.609L40.866 1.5l-1.733-1-6.82 11.824c-2.181-.049-4.9-.074-8.313-.074-17 0-17 .621-17 1.75 0 2.012 9.928 15.359 16 23.336L23.001 46H17v2h14v-2h-5.999L25 37.336zm8.435-22.955c2.463.078 4.247.186 5.241.297-.564 1.059-1.802 2.949-3.447 5.322h-5.035l3.241-5.619zm-24.136.301c1.979-.229 7.182-.432 14.701-.432 2.701 0 5.099.025 7.16.07L27.884 20H12.761c-1.669-2.4-2.915-4.295-3.462-5.318zM14.168 22H26.73l-2.597 4.5 1.732 1 3.173-5.5h4.787c-2.78 3.926-6.338 8.748-9.826 13.348-3.49-4.602-7.051-9.43-9.831-13.348z"/></defs><use xlink:href="#a"/></svg>