<svg viewBox="0 0 48 48" xmlns="http://www.w3.org/2000/svg" xmlns:xlink="http://www.w3.org/1999/xlink" width="48" height="48"><defs><path id="a" d="M33.5 45L32 43h1.41l13.311-13.29c1.309-1.31 1.309-3.13 0-4.439C45.45 24 43.58 24 42.29 25.29L36.58 31h-7.16l3.26-13.04 13.93 3.851.271-.96c1.14-4.12.7-8.28-1.229-11.71-1.66-2.95-4.34-5.21-7.66-6.521-.002-.04.008-.08.008-.12 0-.83-.67-1.5-1.5-1.5-.57 0-1.05.32-1.311.78a17.45 17.45 0 0 0-3.76-.4c-7.4 0-13.58 4.391-15.39 10.94l-.271.96 14.99 4.15L27.359 31H23.63l-7 6H3c-1.66 0-3 1.34-3 3 0 1.34.89 2.47 2.11 2.851L.5 45H0v2h48v-2H33.5zm6.471-37.08a12.07 12.07 0 0 0-.451-2.319c1.851 1.14 3.351 2.68 4.391 4.52 1.52 2.7 1.96 5.94 1.279 9.22l-6.26-1.729c.94-3.721 1.31-7.051 1.041-9.692zM18.27 11.9c1.84-5.03 6.83-8.37 12.78-8.51-2.63 1.95-5.07 5.65-6.521 10.24L18.27 11.9zm8.19 2.26c2.16-6.77 6.56-10.95 9.271-10.2 1.56.431 2.09 2.5 2.25 4.16.24 2.36-.11 5.521-.98 8.96L26.46 14.16zM28.92 33h5.66l-4 4h-2.66l1-4zm-4.55 0h2.489l-1 4H19.7l4.67-4zM2 40c0-.55.45-1 1-1h28.41l12.3-12.29c.181-.189.47-.41.81-.41.33 0 .61.21.791.391.529.529.529 1.069 0 1.6L32.58 41H3c-.55 0-1-.45-1-1zm21.859 5H3l1.5-2h19.859l-.5 2zm2.061 0l.5-2h3.08l1.5 2h-5.08z"/></defs><use xlink:href="#a"/></svg>