<svg viewBox="0 0 48 48" xmlns="http://www.w3.org/2000/svg" xmlns:xlink="http://www.w3.org/1999/xlink" width="48" height="48"><defs><path fill="#5d6b82" id="a" d="M14.637 43.995l8.91-19.688 18.009 8 .405-.916c4.652-10.502.967-21.162-8.925-26.514a2 2 0 0 0-1.989-1.891c-.459 0-.878.162-1.216.424-2.494-.93-5.008-1.406-7.492-1.406-7.91 0-14.716 4.705-18.207 12.586l-.404.914 17.992 7.991-9.278 20.5H0v2.001h48v-2.001H14.637zM30.638 5.898a.088.088 0 0 1 .01.006c4.34 1.951 4.775 10.652 1.183 19.894l-16.094-7.149c3.173-6.473 7.308-11.267 11.036-12.697 1.42-.546 2.722-.563 3.865-.054zm9.881 23.759l-6.864-3.049c2.688-6.87 3.227-13.417 1.729-17.778 6.147 5.033 8.228 12.926 5.135 20.827zM22.339 4.004c1.07 0 2.148.1 3.229.293-4.052 1.809-8.39 6.858-11.661 13.54l-7.522-3.341C9.65 7.905 15.549 4.004 22.339 4.004z"/></defs><use xlink:href="#a"/></svg>