<svg xmlns="http://www.w3.org/2000/svg" width="48" height="48" viewBox="0 0 48 48"><path d="M45.755 1h-3.454c-.426 0-.799.381-.799.807v3.455c0 .426-.317.768-.743.768h-4.454c-.426 0-.839-.342-.839-.768V1.807c-.001-.426-.277-.807-.703-.807h-3.454c-.426 0-.782.381-.782.807v12.967l-5.271-4.465a1.82 1.82 0 0 0-2.354 0l-5.271 4.465V1.807c0-.426-.31-.807-.736-.807H13.44c-.426 0-.748.381-.748.807v3.455c0 .426-.368.768-.793.768H7.447c-.426 0-.789-.342-.789-.768V1.807C6.659 1.381 6.331 1 5.905 1H2.451c-.426 0-.731.381-.731.807v44.422c0 .426.305.77.731.77h17.011v-8.276a4.619 4.619 0 0 1 9.237 0V47h17.057c.426 0 .685-.344.685-.77V1.807c-.001-.426-.26-.807-.686-.807z"/></svg>