<svg xmlns="http://www.w3.org/2000/svg" width="48" height="48" viewBox="0 0 48 48"><path fill="#b09e9e" d="M46.693 21.499a2.943 2.943 0 0 0-2.938-2.945h-.025v-3.509a2.92 2.92 0 0 0-2.935-2.92h-4.976a2.914 2.914 0 0 0-2.928 2.92v5.965H15.109v-5.965a2.914 2.914 0 0 0-2.928-2.92H7.205a2.92 2.92 0 0 0-2.935 2.92v3.509h-.025a2.943 2.943 0 0 0-2.938 2.945v3.002a2.943 2.943 0 0 0 2.938 2.945h.025v3.509a2.92 2.92 0 0 0 2.935 2.92h4.976a2.914 2.914 0 0 0 2.928-2.92V24.99h17.782v5.965a2.914 2.914 0 0 0 2.928 2.92h4.976a2.92 2.92 0 0 0 2.935-2.92v-3.509h.025a2.943 2.943 0 0 0 2.938-2.945v-3.002z"/></svg>