<svg xmlns="http://www.w3.org/2000/svg" width="48" height="48" viewBox="0 0 48 48"><path d="M38.422 8.8H14.455c-.991 0-1.754.796-1.754 1.786v18.857l-6.078 6.715v9.014c0 .99.764 1.8 1.754 1.8h15.609v-9.875c0-.302.222-.581.522-.581h3.855c.303 0 .518.279.518.581v9.875h9.539c.99 0 1.83-.81 1.83-1.8V10.586c.001-.99-.838-1.786-1.828-1.786zm-16.51 32.482a.545.545 0 0 1-.545.545h-3.889a.544.544 0 0 1-.544-.545v-3.89c0-.301.244-.545.544-.545h3.889c.301 0 .545.244.545.545v3.89zm0-7.053a.545.545 0 0 1-.545.545h-3.889a.544.544 0 0 1-.544-.545v-3.89c0-.301.244-.545.544-.545h3.889c.301 0 .545.244.545.545v3.89zm0-7.137a.545.545 0 0 1-.545.545h-3.889a.544.544 0 0 1-.544-.545v-3.889c0-.301.244-.545.544-.545h3.889c.301 0 .545.244.545.545v3.889zm0-7.054a.545.545 0 0 1-.545.545h-3.889a.544.544 0 0 1-.544-.545v-3.889c0-.301.244-.545.544-.545h3.889c.301 0 .545.244.545.545v3.889zm7.053 14.191a.545.545 0 0 1-.544.545h-3.89a.545.545 0 0 1-.544-.545V30.34c0-.302.244-.546.544-.546h3.89c.3 0 .544.244.544.546v3.889zm0-7.137a.545.545 0 0 1-.544.545h-3.89a.545.545 0 0 1-.544-.545v-3.889c0-.301.244-.545.544-.545h3.89c.3 0 .544.244.544.545v3.889zm0-7.054a.545.545 0 0 1-.544.545h-3.89a.545.545 0 0 1-.544-.545v-3.889c0-.301.244-.545.544-.545h3.89c.3 0 .544.244.544.545v3.889zm7.054 21.244a.544.544 0 0 1-.544.545h-3.889a.545.545 0 0 1-.545-.545v-3.89c0-.301.244-.545.545-.545h3.889c.301 0 .544.244.544.545v3.89zm0-7.053a.544.544 0 0 1-.544.545h-3.889a.545.545 0 0 1-.545-.545v-3.89c0-.301.244-.545.545-.545h3.889c.301 0 .544.244.544.545v3.89zm0-7.137a.544.544 0 0 1-.544.545h-3.889a.545.545 0 0 1-.545-.545v-3.889c0-.301.244-.545.545-.545h3.889c.301 0 .544.244.544.545v3.889zm0-7.054a.544.544 0 0 1-.544.545h-3.889a.545.545 0 0 1-.545-.545v-3.889c0-.301.244-.545.545-.545h3.889c.301 0 .544.244.544.545v3.889zM18.26 6.518l1.411 1.014a.407.407 0 0 0 .626-.459l-.546-1.651a.41.41 0 0 1 .146-.457l1.401-1.03a.407.407 0 0 0-.244-.737l-1.739.009a.409.409 0 0 1-.39-.28l-.545-1.652a.409.409 0 0 0-.777.005l-.528 1.655a.407.407 0 0 1-.387.284l-1.738.01a.409.409 0 0 0-.236.74l1.411 1.015a.408.408 0 0 1 .151.456l-.528 1.655a.408.408 0 0 0 .632.453l1.4-1.028a.407.407 0 0 1 .48-.002zm8.565 0l1.411 1.014a.407.407 0 0 0 .626-.459l-.546-1.651a.41.41 0 0 1 .146-.457l1.401-1.03a.408.408 0 0 0-.244-.737l-1.739.009a.409.409 0 0 1-.39-.28l-.546-1.649a.409.409 0 0 0-.777.005l-.527 1.653a.407.407 0 0 1-.388.284l-1.738.01a.409.409 0 0 0-.236.74l1.411 1.015a.408.408 0 0 1 .151.456l-.528 1.655a.408.408 0 0 0 .631.453l1.4-1.028a.408.408 0 0 1 .482-.003zm8.406 0l1.412 1.014a.407.407 0 0 0 .626-.459l-.546-1.651a.406.406 0 0 1 .146-.457l1.4-1.03a.407.407 0 0 0-.244-.737l-1.738.009a.409.409 0 0 1-.39-.28l-.546-1.649a.409.409 0 0 0-.778.005l-.528 1.655a.407.407 0 0 1-.387.284l-1.738.01a.409.409 0 0 0-.236.74l1.412 1.015a.408.408 0 0 1 .151.456l-.528 1.655a.408.408 0 0 0 .631.453l1.4-1.028a.404.404 0 0 1 .481-.005z"/></svg>