<svg viewBox="0 0 48 48" xmlns="http://www.w3.org/2000/svg" xmlns:xlink="http://www.w3.org/1999/xlink" width="48" height="48"><defs><path fill="#5d6b82" id="a" d="M26 22h-4v-4h4v4zm0-10h-4v4h4v-4zm6 18h-4v4h4v-4zm0-18h-4v4h4v-4zm0 12h-4v4h4v-4zm0-18h-4v4h4V6zm0 12h-4v4h4v-4zM26 6h-4v4h4V6zm-6 12h-4v4h4v-4zm0 12h-4v4h4v-4zm0-6h-4v4h4v-4zM36.2 4v42H39v2H9v-2h2.8V4H9V2h5.6V0h18.8v2H39v2h-2.8zM27 41c0-1.654-1.346-3-3-3s-3 1.346-3 3v5h6v-5zm7.2-37H13.8v42H19v-5c0-2.758 2.243-5 5-5s5 2.242 5 5v5h5.2V4zM26 30h-4v4h4v-4zm0-6h-4v4h4v-4zm-6-12h-4v4h4v-4zm0-6h-4v4h4V6z"/></defs><use xlink:href="#a"/></svg>