<svg xmlns="http://www.w3.org/2000/svg" width="48" height="48" viewBox="0 0 48 48"><path d="M22.949 45.999a1.33 1.33 0 0 0 2.486-.01l3.232-8.522-6.734 5.912 1.016 2.62zm3.133-21.538a8.219 8.219 0 0 1-1.324-.567l-7.74 6.796 1.164 3.006 9.872-8.668a10.191 10.191 0 0 1-1.972-.567zm-8.609.738c-.941 0-1.854-.125-2.722-.359l1.107 2.859 2.944-2.584c-.437.055-.882.084-1.329.084zm1.868 11.487l1.434 3.699 10.171-8.929 2.619-6.903c-.213.077-.428.148-.646.214L19.341 36.686zm13.631-28.9A3 3 0 0 1 31.182 6a7.45 7.45 0 0 0-14.003 0 2.989 2.989 0 0 1-1.788 1.786 7.453 7.453 0 0 0-4.905 7.005 7.462 7.462 0 0 0 11.908 5.989 2.99 2.99 0 0 1 3.575-.002 7.46 7.46 0 0 0 11.908-5.987 7.454 7.454 0 0 0-4.905-7.005z"/></svg>