<svg xmlns="http://www.w3.org/2000/svg" width="48" height="48" viewBox="0 0 48 48"><path d="M43.925 29.652v-1.781c1.842-1.08 3.018-3.052 3.018-5.307 0-2.85-4.3-6.664-5.726-7.849a.706.706 0 0 0-.903.001c-1.426 1.185-5.727 4.999-5.727 7.848 0 2.254 1.231 4.227 3.012 5.307v1.791h-7.001V24.71c2.703-2.025 4.49-5.267 4.49-8.92 0-5.12-7.732-11.974-10.295-14.104a1.27 1.27 0 0 0-1.626-.001c-2.561 2.129-10.309 8.984-10.309 14.105a11.14 11.14 0 0 0 4.476 8.92v4.952h-6.939v-1.791a6.213 6.213 0 0 0 2.995-5.307c0-2.85-4.313-6.664-5.738-7.849a.713.713 0 0 0-.909.001c-1.426 1.186-5.737 4.999-5.737 7.848 0 2.254 1.222 4.227 3.003 5.307v1.781C2.351 29.762 1 31.158 1 32.865v10.538c0 1.779 1.451 3.207 3.229 3.207h4.938v-6.58c0-1.854 1.524-3.356 3.378-3.356s3.377 1.503 3.377 3.356v6.58h16.15v-6.58a3.349 3.349 0 0 1 3.347-3.357 3.349 3.349 0 0 1 3.347 3.357v6.58h4.966a3.193 3.193 0 0 0 3.202-3.207V32.865a3.192 3.192 0 0 0-3.009-3.213z"/></svg>