<svg xmlns="http://www.w3.org/2000/svg" width="48" height="48" viewBox="0 0 48 48"><path fill="#5d6b82" d="M22.013 39.891a16.42 16.42 0 0 0 3.926-.027l.306-9.782a4.902 4.902 0 0 1-1.665-1.165 4.915 4.915 0 0 1-1.302-3.687l.481-6.734a4.7 4.7 0 0 1-2.358 1.771l.612 19.624zm14.282-34.88v4.268a18.996 18.996 0 0 1 6.678 14.511 18.999 18.999 0 0 1-6.678 14.513v4.268c6.135-4.036 10.078-10.939 10.078-18.78 0-7.842-3.943-14.745-10.078-18.78zM24.623 3.536v1.136c.075.006.25.012.382.02a7.005 7.005 0 0 1 2.275-3.178 22.836 22.836 0 0 0-3.412-.256c-.15 0-.288.003-.437.006a2.787 2.787 0 0 1 1.192 2.272z"/><path fill="#5d6b82" d="M36.295 13.432v20.717c2.395-2.811 3.751-6.423 3.751-10.359s-1.357-7.548-3.751-10.358zm-26.77 2.814a16.115 16.115 0 0 0-1.866 7.543c0 4.306 1.687 8.223 4.434 11.128l.459-14.704a4.7 4.7 0 0 1-3.027-3.967zm16.312 26.9l.01-.326a19.093 19.093 0 0 1-3.741.022l.011.349a4.25 4.25 0 0 1-1.079 2.955 22.745 22.745 0 0 0 5.874-.029 4.297 4.297 0 0 1-1.075-2.971z"/><path fill="#5d6b82" d="M4.734 23.789c0-4.835 1.782-9.256 4.774-12.627V6.425a22.42 22.42 0 0 0-8.174 17.364c0 8.026 4.195 15.07 10.512 19.063l.128-4.084c-4.408-3.51-7.24-8.92-7.24-14.979z"/><path fill="#aab6c9" d="M31.569 1.999a5.002 5.002 0 0 0-5.006 4.644l-1.339 18.734c-.059.814.225 1.632.783 2.231s1.34.952 2.158.952h.08l-.458 14.664a2.322 2.322 0 0 0 2.32 2.394h1.924c1.282 0 2.319-1.056 2.319-2.338V4.744c0-1.537-1.244-2.745-2.781-2.745zM19.395 18.534h.519c1.511 0 2.763-1.201 2.763-2.712V3.536a.883.883 0 0 0-.862-.863h-.194c-.462 0-.814.402-.814.863v8.123c0 .72-.605 1.339-1.324 1.339h-.194c-.719 0-1.325-.619-1.325-1.339V3.536c0-.461-.352-.863-.813-.863h-.194a.885.885 0 0 0-.864.863v8.123c0 .72-.554 1.339-1.274 1.339h-.193c-.72 0-1.301-.619-1.301-1.339V3.536c0-.461-.375-.863-.837-.863h-.194c-.461 0-.839.402-.839.863v12.286c0 1.511 1.229 2.712 2.74 2.712h.362l-.772 24.707a2.3 2.3 0 0 0 2.282 2.378h1.819a2.307 2.307 0 0 0 2.281-2.379l-.772-24.706z"/></svg>