<svg xmlns="http://www.w3.org/2000/svg" width="48" height="48" viewBox="0 0 48 48"><path d="M44.374 35.596V15.698a2.018 2.018 0 0 0 .862-3.815L25.553 1.678a3.376 3.376 0 0 0-3.103-.001L2.706 11.887a2.021 2.021 0 0 0 .923 3.813v19.896a2.468 2.468 0 0 0 .264 4.924H44.11a2.468 2.468 0 0 0 .264-4.924zm-32.101-.033H9.685V15.687h2.589v19.876zm17.343 0H18.385V15.687h11.231v19.876zm8.7 0h-2.589V15.687h2.589v19.876zm6.378 6.442H3.307a1.982 1.982 0 0 0 0 3.964h41.388a1.982 1.982 0 1 0-.001-3.964z"/></svg>