<svg viewBox="0 0 48 48" xmlns="http://www.w3.org/2000/svg" xmlns:xlink="http://www.w3.org/1999/xlink" width="48" height="48">
<defs>



 <path fill="#000000" id="i-467" d="M33.5,45L32,43h1.41l13.311-13.29c1.309-1.31,1.309-3.13,0-4.439C45.45,24,43.58,24,42.29,25.29L36.58,31h-7.16l3.26-13.04 l13.93,3.851l0.271-0.96c1.14-4.12,0.7-8.28-1.229-11.71c-1.66-2.95-4.34-5.21-7.66-6.521C37.99,2.58,38,2.54,38,2.5 C38,1.67,37.33,1,36.5,1c-0.57,0-1.05,0.32-1.311,0.78c-1.229-0.271-2.489-0.4-3.76-0.4c-7.4,0-13.58,4.391-15.39,10.94l-0.271,0.96 l14.99,4.15L27.359,31H23.63l-7,6H3c-1.66,0-3,1.34-3,3c0,1.34,0.89,2.47,2.11,2.851L0.5,45H0v2h48v-2H33.5z M39.971,7.92 c-0.091-0.899-0.25-1.66-0.451-2.319c1.851,1.14,3.351,2.68,4.391,4.52c1.52,2.7,1.96,5.94,1.279,9.22l-6.26-1.729 C39.87,13.891,40.24,10.561,39.971,7.92z M18.27,11.9c1.84-5.03,6.83-8.37,12.78-8.51C28.42,5.34,25.98,9.04,24.529,13.63 L18.27,11.9z M26.46,14.16c2.16-6.77,6.56-10.95,9.271-10.2c1.56,0.431,2.09,2.5,2.25,4.16c0.24,2.36-0.11,5.521-0.98,8.96 L26.46,14.16z M28.92,33h5.66l-4,4h-2.66L28.92,33z M24.37,33h2.489l-1,4H19.7L24.37,33z M2,40c0-0.55,0.45-1,1-1h28.41l12.3-12.29 c0.181-0.189,0.47-0.41,0.81-0.41c0.33,0,0.61,0.21,0.791,0.391c0.529,0.529,0.529,1.069,0,1.6L32.58,41H3C2.45,41,2,40.55,2,40z M23.859,45H3l1.5-2h19.859L23.859,45z M25.92,45l0.5-2h3.08l1.5,2H25.92z"/> 
</defs>

<use x="0" y="0" xlink:href="#i-467"/>

</svg>
