<svg viewBox="0 0 48 48" xmlns="http://www.w3.org/2000/svg" xmlns:xlink="http://www.w3.org/1999/xlink" width="48" height="48">
<defs>



 <path fill="#5d6b82" id="i-466" d="M14.637,43.995l8.91-19.688l18.009,8l0.405-0.916c4.652-10.502,0.967-21.162-8.925-26.514 c-0.06-1.051-0.925-1.891-1.989-1.891c-0.459,0-0.878,0.162-1.216,0.424c-2.494-0.93-5.008-1.406-7.492-1.406 c-7.91,0-14.716,4.705-18.207,12.586l-0.404,0.914l17.992,7.991l-9.278,20.5H0v2.001h48v-2.001H14.637z M30.638,5.898 c0.004,0.002,0.007,0.004,0.01,0.006c4.34,1.951,4.775,10.652,1.183,19.894l-16.094-7.149c3.173-6.473,7.308-11.267,11.036-12.697 C28.193,5.406,29.495,5.389,30.638,5.898z M40.519,29.657l-6.864-3.049c2.688-6.87,3.227-13.417,1.729-17.778 C41.531,13.863,43.612,21.756,40.519,29.657z M22.339,4.004c1.07,0,2.148,0.1,3.229,0.293c-4.052,1.809-8.39,6.858-11.661,13.54 l-7.522-3.341C9.65,7.905,15.549,4.004,22.339,4.004z"/> 
</defs>

<use x="0" y="0" xlink:href="#i-466"/>

</svg>