<svg viewBox="0 0 48 48" xmlns="http://www.w3.org/2000/svg" xmlns:xlink="http://www.w3.org/1999/xlink" width="48" height="48">
<defs>



 <path fill="#5d6b82" id="i-414" d="M26,22h-4v-4h4V22z M26,12h-4v4h4V12z M32,30h-4v4h4V30z M32,12h-4v4h4V12z M32,24h-4v4h4V24z M32,6h-4v4h4V6z M32,18h-4v4 h4V18z M26,6h-4v4h4V6z M20,18h-4v4h4V18z M20,30h-4v4h4V30z M20,24h-4v4h4V24z M36.2,4v42H39v2h-2.8H29H19h-7.2H9v-2h2.8V4H9V2h2.8 h2.8V0H33.4v2h2.8H39v2H36.2z M27,41c0-1.654-1.346-3-3-3s-3,1.346-3,3v5h6V41z M34.2,4H13.8v42H19v-5c0-2.758,2.243-5,5-5 s5,2.242,5,5v5h5.2V4z M26,30h-4v4h4V30z M26,24h-4v4h4V24z M20,12h-4v4h4V12z M20,6h-4v4h4V6z"/> 
</defs>

<use x="0" y="0" xlink:href="#i-414"/>

</svg>